<svg width="26" height="27" viewBox="0 0 26 27" fill="none" xmlns="http://www.w3.org/2000/svg">
<path fill-rule="evenodd" clip-rule="evenodd" d="M21.6667 8.65885C21.0347 8.94097 20.352 9.13281 19.6185 9.23438C20.3859 8.78298 20.9106 8.12283 21.1927 7.25391C20.4592 7.68273 19.7031 7.97049 18.9245 8.11719C18.2361 7.37239 17.3728 7 16.3346 7C15.3529 7 14.515 7.347 13.821 8.04102C13.1269 8.73503 12.7799 9.57291 12.7799 10.5547C12.7799 10.8819 12.8082 11.1528 12.8646 11.3672C11.4088 11.2882 10.0434 10.9214 8.76823 10.2669C7.49305 9.61241 6.40973 8.73785 5.51823 7.64323C5.19097 8.20747 5.02734 8.80555 5.02734 9.4375C5.02734 10.724 5.54079 11.7114 6.56771 12.3997C6.03732 12.3885 5.47309 12.2418 4.875 11.9596V11.9935C4.875 12.8398 5.15712 13.5931 5.72135 14.2533C6.28559 14.9134 6.9796 15.3225 7.80339 15.4805C7.47613 15.5707 7.18837 15.6159 6.9401 15.6159C6.7934 15.6159 6.57335 15.5933 6.27995 15.5482C6.51693 16.2591 6.93728 16.8459 7.54102 17.3086C8.14475 17.7713 8.83029 18.0082 9.59766 18.0195C8.28862 19.0352 6.81598 19.543 5.17969 19.543C4.88628 19.543 4.60417 19.526 4.33333 19.4922C6.00348 20.553 7.8203 21.0833 9.78385 21.0833C11.0477 21.0833 12.2326 20.883 13.3385 20.4824C14.4444 20.0818 15.3924 19.5458 16.1823 18.8743C16.9722 18.2029 17.6521 17.4299 18.222 16.5553C18.7919 15.6808 19.2151 14.7667 19.4915 13.8132C19.768 12.8596 19.9062 11.9089 19.9062 10.9609C19.9062 10.7578 19.9006 10.6055 19.8893 10.5039C20.6003 9.99609 21.1927 9.38108 21.6667 8.65885ZM26 5.375V21.625C26 22.9679 25.5232 24.1161 24.5697 25.0697C23.6161 26.0232 22.4679 26.5 21.125 26.5H4.875C3.53211 26.5 2.3839 26.0232 1.43034 25.0697C0.476775 24.1161 0 22.9679 0 21.625V5.375C0 4.03211 0.476775 2.8839 1.43034 1.93034C2.3839 0.976775 3.53211 0.5 4.875 0.5H21.125C22.4679 0.5 23.6161 0.976775 24.5697 1.93034C25.5232 2.8839 26 4.03211 26 5.375Z" fill="white"/>
</svg>
