<svg width="26" height="27" viewBox="0 0 26 27" fill="none" xmlns="http://www.w3.org/2000/svg">
<path fill-rule="evenodd" clip-rule="evenodd" d="M21.125 0.5C22.4679 0.5 23.6161 0.976775 24.5697 1.93034C25.5232 2.8839 26 4.03211 26 5.375V21.625C26 22.9679 25.5232 24.1161 24.5697 25.0697C23.6161 26.0232 22.4679 26.5 21.125 26.5H17.9427V16.4284H21.3112L21.819 12.5013H17.9427V9.99609C17.9427 9.36415 18.0753 8.89019 18.3405 8.57422C18.6057 8.25824 19.122 8.10026 19.8893 8.10026L21.9544 8.08333V4.57943C21.2435 4.47786 20.2392 4.42708 18.9414 4.42708C17.4067 4.42708 16.1795 4.87847 15.2598 5.78125C14.3401 6.68403 13.8802 7.95919 13.8802 9.60677V12.5013H10.4948V16.4284H13.8802V26.5H4.875C3.53211 26.5 2.3839 26.0232 1.43034 25.0697C0.476775 24.1161 0 22.9679 0 21.625V5.375C0 4.03211 0.476775 2.8839 1.43034 1.93034C2.3839 0.976775 3.53211 0.5 4.875 0.5H21.125Z" fill="white"/>
</svg>
