<svg width="26" height="27" viewBox="0 0 26 27" fill="none" xmlns="http://www.w3.org/2000/svg">
<path fill-rule="evenodd" clip-rule="evenodd" d="M17.3333 13.5C17.3333 12.3038 16.9102 11.2826 16.0638 10.4362C15.2174 9.58984 14.1962 9.16667 13 9.16667C11.8038 9.16667 10.7826 9.58984 9.9362 10.4362C9.08984 11.2826 8.66667 12.3038 8.66667 13.5C8.66667 14.6962 9.08984 15.7174 9.9362 16.5638C10.7826 17.4102 11.8038 17.8333 13 17.8333C14.1962 17.8333 15.2174 17.4102 16.0638 16.5638C16.9102 15.7174 17.3333 14.6962 17.3333 13.5ZM19.6693 13.5C19.6693 15.3507 19.0204 16.9249 17.7227 18.2227C16.4249 19.5204 14.8507 20.1693 13 20.1693C11.1493 20.1693 9.57509 19.5204 8.27734 18.2227C6.97959 16.9249 6.33073 15.3507 6.33073 13.5C6.33073 11.6493 6.97959 10.0751 8.27734 8.77734C9.57509 7.47959 11.1493 6.83073 13 6.83073C14.8507 6.83073 16.4249 7.47959 17.7227 8.77734C19.0204 10.0751 19.6693 11.6493 19.6693 13.5ZM21.4974 6.5599C21.4974 6.98872 21.3451 7.35547 21.0404 7.66016C20.7357 7.96485 20.3689 8.11719 19.9401 8.11719C19.5113 8.11719 19.1445 7.96485 18.8398 7.66016C18.5352 7.35547 18.3828 6.98872 18.3828 6.5599C18.3828 6.13107 18.5352 5.76432 18.8398 5.45964C19.1445 5.15495 19.5113 5.0026 19.9401 5.0026C20.3689 5.0026 20.7357 5.15495 21.0404 5.45964C21.3451 5.76432 21.4974 6.13107 21.4974 6.5599ZM13 2.83594C12.921 2.83594 12.4894 2.83312 11.7051 2.82747C10.9208 2.82183 10.3255 2.82183 9.91927 2.82747C9.51302 2.83312 8.96854 2.85004 8.28581 2.87826C7.60308 2.90647 7.02192 2.96289 6.54232 3.04753C6.06271 3.13216 5.65929 3.23654 5.33203 3.36068C4.76779 3.58637 4.27127 3.91363 3.84245 4.34245C3.41363 4.77127 3.08637 5.26779 2.86068 5.83203C2.73654 6.15929 2.63216 6.56271 2.54753 7.04232C2.46289 7.52192 2.40647 8.10308 2.37826 8.78581C2.35004 9.46854 2.33312 10.013 2.32747 10.4193C2.32183 10.8255 2.32183 11.4208 2.32747 12.2051C2.33312 12.9894 2.33594 13.421 2.33594 13.5C2.33594 13.579 2.33312 14.0106 2.32747 14.7949C2.32183 15.5792 2.32183 16.1745 2.32747 16.5807C2.33312 16.987 2.35004 17.5315 2.37826 18.2142C2.40647 18.8969 2.46289 19.4781 2.54753 19.9577C2.63216 20.4373 2.73654 20.8407 2.86068 21.168C3.08637 21.7322 3.41363 22.2287 3.84245 22.6576C4.27127 23.0864 4.76779 23.4136 5.33203 23.6393C5.65929 23.7635 6.06271 23.8678 6.54232 23.9525C7.02192 24.0371 7.60308 24.0935 8.28581 24.1217C8.96854 24.15 9.51302 24.1669 9.91927 24.1725C10.3255 24.1782 10.9208 24.1782 11.7051 24.1725C12.4894 24.1669 12.921 24.1641 13 24.1641C13.079 24.1641 13.5106 24.1669 14.2949 24.1725C15.0792 24.1782 15.6745 24.1782 16.0807 24.1725C16.487 24.1669 17.0315 24.15 17.7142 24.1217C18.3969 24.0935 18.9781 24.0371 19.4577 23.9525C19.9373 23.8678 20.3407 23.7635 20.668 23.6393C21.2322 23.4136 21.7287 23.0864 22.1576 22.6576C22.5864 22.2287 22.9136 21.7322 23.1393 21.168C23.2635 20.8407 23.3678 20.4373 23.4525 19.9577C23.5371 19.4781 23.5935 18.8969 23.6217 18.2142C23.65 17.5315 23.6669 16.987 23.6725 16.5807C23.6782 16.1745 23.6782 15.5792 23.6725 14.7949C23.6669 14.0106 23.6641 13.579 23.6641 13.5C23.6641 13.421 23.6669 12.9894 23.6725 12.2051C23.6782 11.4208 23.6782 10.8255 23.6725 10.4193C23.6669 10.013 23.65 9.46854 23.6217 8.78581C23.5935 8.10308 23.5371 7.52192 23.4525 7.04232C23.3678 6.56271 23.2635 6.15929 23.1393 5.83203C22.9136 5.26779 22.5864 4.77127 22.1576 4.34245C21.7287 3.91363 21.2322 3.58637 20.668 3.36068C20.3407 3.23654 19.9373 3.13216 19.4577 3.04753C18.9781 2.96289 18.3969 2.90647 17.7142 2.87826C17.0315 2.85004 16.487 2.83312 16.0807 2.82747C15.6745 2.82183 15.0792 2.82183 14.2949 2.82747C13.5106 2.83312 13.079 2.83594 13 2.83594ZM26 13.5C26 16.0842 25.9718 17.8728 25.9154 18.8659C25.8025 21.2131 25.1029 23.0299 23.8164 24.3164C22.5299 25.6029 20.7131 26.3025 18.3659 26.4154C17.3728 26.4718 15.5842 26.5 13 26.5C10.4158 26.5 8.62718 26.4718 7.63411 26.4154C5.28688 26.3025 3.47006 25.6029 2.18359 24.3164C0.897129 23.0299 0.197483 21.2131 0.0846354 18.8659C0.0282115 17.8728 0 16.0842 0 13.5C0 10.9158 0.0282115 9.12718 0.0846354 8.13411C0.197483 5.78688 0.897129 3.97006 2.18359 2.68359C3.47006 1.39713 5.28688 0.697483 7.63411 0.584635C8.62718 0.528212 10.4158 0.5 13 0.5C15.5842 0.5 17.3728 0.528212 18.3659 0.584635C20.7131 0.697483 22.5299 1.39713 23.8164 2.68359C25.1029 3.97006 25.8025 5.78688 25.9154 8.13411C25.9718 9.12718 26 10.9158 26 13.5Z" fill="white"/>
</svg>
