<svg width="48" height="37" viewBox="0 0 48 37" fill="none" xmlns="http://www.w3.org/2000/svg">
<path d="M47.3538 7.77009C47.3538 7.01674 47.0525 6.26339 46.51 5.72098L42.4118 1.62277C41.8694 1.08036 41.1161 0.779016 40.3627 0.779016C39.6094 0.779016 38.856 1.08036 38.3136 1.62277L18.5458 21.4208L9.68638 12.5312C9.14397 11.9888 8.39063 11.6875 7.63728 11.6875C6.88393 11.6875 6.13058 11.9888 5.58817 12.5312L1.48996 16.6295C0.947545 17.1719 0.646206 17.9252 0.646206 18.6786C0.646206 19.4319 0.947545 20.1853 1.48996 20.7277L12.3984 31.6362L16.4967 35.7344C17.0391 36.2768 17.7924 36.5781 18.5458 36.5781C19.2991 36.5781 20.0525 36.2768 20.5949 35.7344L24.6931 31.6362L46.51 9.8192C47.0525 9.27679 47.3538 8.52344 47.3538 7.77009Z" fill="white"/>
</svg>
