<svg width="33" height="34" viewBox="0 0 33 34" fill="none" xmlns="http://www.w3.org/2000/svg">
<path d="M9.27344 27.2266C9.27344 25.8398 8.16016 24.7266 6.77344 24.7266C5.40625 24.7266 4.27344 25.8398 4.27344 27.2266C4.27344 28.5937 5.40625 29.7266 6.77344 29.7266C8.16016 29.7266 9.27344 28.5937 9.27344 27.2266ZM19 31.25C19 29.8633 17.8867 28.75 16.5 28.75C15.1133 28.75 14 29.8633 14 31.25C14 32.6367 15.1133 33.75 16.5 33.75C17.8867 33.75 19 32.6367 19 31.25ZM5.25 17.5C5.25 16.1133 4.13672 15 2.75 15C1.36328 15 0.25 16.1133 0.25 17.5C0.25 18.8867 1.36328 20 2.75 20C4.13672 20 5.25 18.8867 5.25 17.5ZM28.7266 27.2266C28.7266 25.8398 27.5938 24.7266 26.2266 24.7266C24.8398 24.7266 23.7266 25.8398 23.7266 27.2266C23.7266 28.5937 24.8398 29.7266 26.2266 29.7266C27.5938 29.7266 28.7266 28.5937 28.7266 27.2266ZM9.89844 7.77344C9.89844 6.05469 8.49219 4.64844 6.77344 4.64844C5.05469 4.64844 3.64844 6.05469 3.64844 7.77344C3.64844 9.49219 5.05469 10.8984 6.77344 10.8984C8.49219 10.8984 9.89844 9.49219 9.89844 7.77344ZM32.75 17.5C32.75 16.1133 31.6367 15 30.25 15C28.8633 15 27.75 16.1133 27.75 17.5C27.75 18.8867 28.8633 20 30.25 20C31.6367 20 32.75 18.8867 32.75 17.5ZM20.25 3.75C20.25 1.67969 18.5703 -2.38419e-06 16.5 -2.38419e-06C14.4297 -2.38419e-06 12.75 1.67969 12.75 3.75C12.75 5.82031 14.4297 7.5 16.5 7.5C18.5703 7.5 20.25 5.82031 20.25 3.75ZM30.6016 7.77344C30.6016 5.37109 28.6289 3.39844 26.2266 3.39844C23.8047 3.39844 21.8516 5.37109 21.8516 7.77344C21.8516 10.1953 23.8047 12.1484 26.2266 12.1484C28.6289 12.1484 30.6016 10.1953 30.6016 7.77344Z" fill="#303030"/>
</svg>
