<svg width="139" height="12" viewBox="0 0 139 12" fill="none" xmlns="http://www.w3.org/2000/svg">
<path fill-rule="evenodd" clip-rule="evenodd" d="M4.99415 5.01528H9.91039V11.2983C8.57549 11.7661 7.10817 12 5.50837 12C3.75275 12 2.3958 11.4791 1.43747 10.4372C0.479153 9.39534 0 7.90964 0 5.98007C0 4.09833 0.524601 2.63389 1.57382 1.58671C2.62304 0.53953 4.09296 0.0159468 5.98363 0.0159468C6.70043 0.0159468 7.37695 0.0850491 8.01324 0.223256C8.64952 0.361462 9.20399 0.536876 9.67666 0.749502L8.70276 3.22126C7.88208 2.80664 6.98091 2.59934 5.99922 2.59934C5.10063 2.59934 4.40592 2.89834 3.91507 3.49635C3.42422 4.09436 3.1788 4.94883 3.1788 6.0598C3.1788 7.14951 3.40085 7.98006 3.84495 8.55149C4.28905 9.12293 4.92922 9.40864 5.76548 9.40864C6.22256 9.40864 6.64328 9.36346 7.02765 9.27309V7.44718H4.99415V5.01528ZM19.3273 11.8405H12.5646V0.183389H19.3273V2.71096H15.6421V4.54485H19.0547V7.07243H15.6421V9.27309H19.3273V11.8405ZM32.4996 11.8405H28.4638L24.3033 3.62791H24.2332C24.3319 4.91961 24.3812 5.90564 24.3812 6.58605V11.8405H21.6543V0.183389H25.6746L29.8195 8.28439H29.8662C29.7935 7.10963 29.7571 6.16612 29.7571 5.45382V0.183389H32.4996V11.8405ZM42.0568 11.8405H35.2941V0.183389H42.0568V2.71096H38.3716V4.54485H41.7841V7.07243H38.3716V9.27309H42.0568V11.8405ZM47.4613 7.59867V11.8405H44.3838V0.183389H48.1158C51.2115 0.183389 52.7593 1.33155 52.7593 3.62791C52.7593 4.97808 52.1153 6.02259 50.8271 6.76146L54.1462 11.8405H50.6557L48.2404 7.59867H47.4613ZM47.4613 5.23057H48.0379C49.1131 5.23057 49.6506 4.74419 49.6506 3.77143C49.6506 2.96877 49.1234 2.56744 48.069 2.56744H47.4613V5.23057ZM55.5148 11.8405V0.183389H58.6079V11.8405H55.5148ZM66.4744 2.59934C65.742 2.59934 65.1707 2.90631 64.7604 3.52027C64.35 4.13422 64.1449 4.98073 64.1449 6.0598C64.1449 8.303 64.9785 9.42458 66.6458 9.42458C67.1497 9.42458 67.6379 9.35283 68.1106 9.2093C68.5832 9.06578 69.0585 8.89302 69.5364 8.69103V11.3542C68.5858 11.7847 67.5107 12 66.3108 12C64.5915 12 63.2735 11.4897 62.3568 10.4691C61.44 9.4485 60.9816 7.97343 60.9816 6.04385C60.9816 4.8372 61.2037 3.77675 61.6478 2.86246C62.0919 1.94817 62.7308 1.24519 63.5644 0.753488C64.3981 0.261792 65.3785 0.0159468 66.5056 0.0159468C67.7366 0.0159468 68.9131 0.289698 70.035 0.837209L69.0923 3.31694C68.6715 3.11495 68.2508 2.94485 67.8301 2.80664C67.4094 2.66844 66.9575 2.59934 66.4744 2.59934ZM76.5666 11.8405V0.183389H79.6441V9.29701H84.0306V11.8405H76.5666ZM96.525 5.99601C96.525 7.95748 96.055 9.4485 95.1148 10.4691C94.1747 11.4897 92.7983 12 90.9855 12C89.1987 12 87.8288 11.487 86.8756 10.4611C85.9225 9.43521 85.446 7.94154 85.446 5.98007C85.446 4.03986 85.9199 2.55814 86.8679 1.53488C87.8158 0.511623 89.1935 0 91.0011 0C92.8138 0 94.1877 0.507636 95.1226 1.52292C96.0576 2.53821 96.525 4.02923 96.525 5.99601ZM88.6871 5.99601C88.6871 8.24985 89.4532 9.37674 90.9855 9.37674C91.7646 9.37674 92.3425 9.10299 92.719 8.55548C93.0956 8.00797 93.2839 7.15482 93.2839 5.99601C93.2839 4.83189 93.093 3.9721 92.7113 3.41661C92.3295 2.86113 91.7594 2.58339 91.0011 2.58339C89.4584 2.58339 88.6871 3.72092 88.6871 5.99601ZM103.488 5.01528H108.404V11.2983C107.069 11.7661 105.602 12 104.002 12C102.246 12 100.889 11.4791 99.9311 10.4372C98.9728 9.39534 98.4936 7.90964 98.4936 5.98007C98.4936 4.09833 99.0182 2.63389 100.067 1.58671C101.117 0.53953 102.587 0.0159468 104.477 0.0159468C105.194 0.0159468 105.871 0.0850491 106.507 0.223256C107.143 0.361462 107.698 0.536876 108.17 0.749502L107.196 3.22126C106.376 2.80664 105.475 2.59934 104.493 2.59934C103.594 2.59934 102.9 2.89834 102.409 3.49635C101.918 4.09436 101.672 4.94883 101.672 6.0598C101.672 7.14951 101.894 7.98006 102.339 8.55149C102.783 9.12293 103.423 9.40864 104.259 9.40864C104.716 9.40864 105.137 9.36346 105.521 9.27309V7.44718H103.488V5.01528ZM121.717 5.99601C121.717 7.95748 121.246 9.4485 120.306 10.4691C119.366 11.4897 117.99 12 116.177 12C114.39 12 113.02 11.487 112.067 10.4611C111.114 9.43521 110.637 7.94154 110.637 5.98007C110.637 4.03986 111.111 2.55814 112.059 1.53488C113.007 0.511623 114.385 0 116.193 0C118.005 0 119.379 0.507636 120.314 1.52292C121.249 2.53821 121.717 4.02923 121.717 5.99601ZM113.879 5.99601C113.879 8.24985 114.645 9.37674 116.177 9.37674C116.956 9.37674 117.534 9.10299 117.911 8.55548C118.287 8.00797 118.475 7.15482 118.475 5.99601C118.475 4.83189 118.285 3.9721 117.903 3.41661C117.521 2.86113 116.951 2.58339 116.193 2.58339C114.65 2.58339 113.879 3.72092 113.879 5.99601ZM130.492 5.93223H128.965V1.58671H127.64V0.183389H131.817V1.58671H130.492V5.93223ZM135.011 5.93223L133.897 1.86578H133.827C133.863 2.16346 133.881 2.45581 133.881 2.74286V5.93223H132.377V0.183389H134.614L135.681 4.00266L136.85 0.183389H139V5.93223H137.481V2.74286C137.481 2.38139 137.499 2.08904 137.535 1.86578H137.465L136.289 5.93223H135.011Z" fill="white"/>
</svg>
